<svg id="Capa_1" enable-background="new 0 0 512 512" height="512" viewBox="0 0 512 512" width="512" xmlns="http://www.w3.org/2000/svg" xmlns:xlink="http://www.w3.org/1999/xlink"><linearGradient id="SVGID_1_" gradientUnits="userSpaceOnUse" x1="256" x2="256" y1="512" y2="0"><stop offset="0" stop-color="#ffc8d1"/><stop offset="1" stop-color="#fff6f7"/></linearGradient><linearGradient id="SVGID_2_" gradientUnits="userSpaceOnUse" x1="256" x2="256" y1="105" y2="407"><stop offset="0" stop-color="#fd3a84"/><stop offset="1" stop-color="#ffa68d"/></linearGradient><g><g><circle cx="256" cy="256" fill="url(#SVGID_1_)" r="256"/></g><g><g><path d="m336.388 335.941c-10.703 0-20.751 4.727-27.572 12.985-1.474 1.787-4.518 4.779-8.391 4.779-9.717 0-17.628-7.867-17.628-17.53v-.234h-53.592v.234c0 9.663-7.911 17.53-17.628 17.53-3.873 0-6.917-2.993-8.4-4.788-6.812-8.249-16.861-12.977-27.563-12.977-19.704 0-35.728 15.934-35.728 35.529s16.022 35.531 35.726 35.531h160.775c19.704 0 35.728-15.934 35.728-35.529s-16.023-35.53-35.727-35.53zm-114.153-35.529-1.692 6.731c-.672 2.654-.07 5.465 1.622 7.616 1.692 2.16 4.292 3.418 7.039 3.418h53.592c2.748 0 5.347-1.258 7.039-3.418 1.692-2.151 2.294-4.962 1.622-7.616l-1.692-6.731zm109.913-1.327c2.634-1.622 4.239-4.476 4.239-7.555v-35.53c0-14.451-7.084-27.187-17.864-35.303v53.068c0 7.528-3.184 14.304-8.247 19.155l13.184 6.555c2.82 1.392 6.104 1.208 8.688-.39zm-152.296 0c2.579 1.595 5.862 1.786 8.688.39l13.184-6.555c-5.063-4.851-8.247-11.627-8.247-19.155v-53.068c-10.78 8.116-17.864 20.852-17.864 35.303v35.529c-.001 3.08 1.604 5.934 4.239 7.556zm40.42-16.438h71.456c4.937 0 8.932-3.973 8.932-8.882v-97.706h-89.32v97.706c0 4.909 3.995 8.882 8.932 8.882zm35.728-71.06c4.933 0 8.932 3.977 8.932 8.882 0 4.906-3.999 8.882-8.932 8.882-4.934 0-8.932-3.976-8.932-8.882 0-4.905 3.998-8.882 8.932-8.882zm3.995-105.65c-2.512-1.249-5.478-1.249-7.99 0-21.077 10.481-35.307 29.893-39.36 52.357h86.709c-4.052-22.464-18.282-41.877-39.359-52.357z" fill="url(#SVGID_2_)"/></g></g></g></svg>