<svg id="Capa_1" enable-background="new 0 0 512 512" height="512" viewBox="0 0 512 512" width="512" xmlns="http://www.w3.org/2000/svg" xmlns:xlink="http://www.w3.org/1999/xlink"><linearGradient id="SVGID_1_" gradientUnits="userSpaceOnUse" x1="256" x2="256" y1="512" y2="0"><stop offset="0" stop-color="#fd3a84"/><stop offset="1" stop-color="#ffa68d"/></linearGradient><g><g><path d="m391 392c-17.982 0-34.856 7.991-46.295 21.925-2.476 3.016-7.6 8.075-14.106 8.075-16.321 0-29.599-13.278-29.599-29.599v-31.401c4.619 0 8.98-2.128 11.823-5.769 2.842-3.641 3.849-8.388 2.729-12.869l-10.34-41.362h7.247l56.833 28.417c4.669 2.334 10.19 2.065 14.594-.657 4.422-2.733 7.114-7.561 7.114-12.76v-60c0-36.219-25.808-66.522-60-73.491v-70.427c0-46.772-26.418-89.562-68.292-110.498-4.223-2.111-9.193-2.111-13.416 0-41.834 20.916-68.292 63.682-68.292 110.498v70.427c-34.192 6.968-60 37.271-60 73.491v60c0 5.199 2.692 10.027 7.114 12.76s9.945 2.981 14.594.657l56.833-28.417h7.247l-10.341 41.362c-1.12 4.481-.113 9.228 2.729 12.869 2.844 3.641 7.205 5.769 11.824 5.769v31.401c0 16.321-13.278 29.599-29.599 29.599-6.506 0-11.631-5.059-14.106-8.074-11.438-13.934-28.312-21.926-46.295-21.926-33.084 0-60 26.916-60 60s26.916 60 60 60h270c33.084 0 60-26.916 60-60s-26.916-60-60-60zm-60-178.42c17.459 6.192 30 22.865 30 42.419v35.73l-30-15zm-150 63.149-30 15v-35.729c0-19.555 12.541-36.227 30-42.419zm75-244.616c21.555 13.031 36.623 33.858 42.39 57.887h-84.78c5.767-24.029 20.835-44.856 42.39-57.887zm-45 87.887h90v151h-90zm70.789 211h-51.577l7.5-30h36.577zm109.211 151h-270c-16.542 0-30-13.458-30-30s13.458-30 30-30c8.967 0 17.39 3.995 23.107 10.961 10.08 12.277 23.325 19.039 37.294 19.039 32.863 0 59.599-26.736 59.599-59.599v-31.401h30v31.401c0 32.863 26.736 59.599 59.599 59.599 13.97 0 27.214-6.762 37.294-19.04 5.718-6.965 14.14-10.96 23.107-10.96 16.542 0 30 13.458 30 30s-13.458 30-30 30zm-135-301c-8.284 0-15 6.716-15 15s6.716 15 15 15 15-6.716 15-15-6.716-15-15-15z" fill="url(#SVGID_1_)"/></g></g></svg>