<svg id="Capa_1" enable-background="new 0 0 512 512" height="512" viewBox="0 0 512 512" width="512" xmlns="http://www.w3.org/2000/svg" xmlns:xlink="http://www.w3.org/1999/xlink"><linearGradient id="SVGID_1_" gradientUnits="userSpaceOnUse" x1="256" x2="256" y1="376" y2="0"><stop offset="0" stop-color="#fd3a84"/><stop offset="1" stop-color="#ffa68d"/></linearGradient><linearGradient id="SVGID_2_" gradientUnits="userSpaceOnUse" x1="256" x2="256" y1="512" y2="121"><stop offset="0" stop-color="#ffc2cc"/><stop offset="1" stop-color="#fff2f4"/></linearGradient><g><g><g><path d="m196 181c-41.353 0-75 33.647-75 75v60c0 5.2 2.695 10.02 7.119 12.759 4.33 2.693 9.843 3.016 14.59.659l60-30zm95.842-30 39.158-30v-7.925c0-47.095-26.162-90.429-68.291-111.493-4.219-2.109-9.199-2.109-13.418 0-42.129 21.064-68.291 64.398-68.291 111.493v7.925l35.526 30zm9.158 133.184v-103.184h-90v103.184l-14.546 58.184c-1.128 4.482-.117 9.229 2.725 12.861 2.842 3.647 7.207 5.771 11.821 5.771l23.645 15h41.21l25.145-15c4.614 0 8.979-2.124 11.821-5.771 2.842-3.633 3.853-8.379 2.725-12.861zm15-103.184-6.709 118.418 60 30c4.736 2.352 10.25 2.04 14.59-.659 4.424-2.739 7.119-7.559 7.119-12.759v-60c0-41.353-33.647-75-75-75z" fill="url(#SVGID_1_)"/></g></g><g><g><path d="m391 391c-17.974 0-34.849 7.983-46.304 21.929-2.476 3.018-7.588 8.071-14.092 8.071-16.318 0-29.604-13.286-29.604-29.604v-30.396h-90v30.396c0 16.318-13.286 29.604-29.604 29.604-6.504 0-11.616-5.054-14.106-8.086-11.441-13.931-28.316-21.914-46.29-21.914-33.091 0-60 26.909-60 60s26.909 61 60 61h270c33.091 0 60-27.909 60-61s-26.909-60-60-60zm-195-90h120c8.291 0 15-6.709 15-15v-165h-150v165c0 8.291 6.709 15 15 15zm60-120.002c8.284 0 15 6.716 15 15 0 8.286-6.716 15-15 15-8.286 0-15-6.714-15-15 0-8.284 6.714-15 15-15z" fill="url(#SVGID_2_)"/></g></g></g></svg>