<?xml version="1.0" encoding="utf-8"?>
<!-- Generator: Adobe Illustrator 25.0.0, SVG Export Plug-In . SVG Version: 6.00 Build 0)  -->
<svg version="1.1" id="Capa_1" xmlns="http://www.w3.org/2000/svg" xmlns:xlink="http://www.w3.org/1999/xlink" x="0px" y="0px"
	 viewBox="0 0 512 512" style="enable-background:new 0 0 512 512;" xml:space="preserve">
<style type="text/css">
	.st0{fill:url(#SVGID_1_);}
	.st1{fill:url(#SVGID_2_);}
</style>
<g>
	<g>
		<g>
			
				<linearGradient id="SVGID_1_" gradientUnits="userSpaceOnUse" x1="256" y1="2" x2="256" y2="514.0021" gradientTransform="matrix(1 0 0 -1 0 514)">
				<stop  offset="0" style="stop-color:#FD3A84"/>
				<stop  offset="1" style="stop-color:#FFA68D"/>
			</linearGradient>
			<path class="st0" d="M170.9,256.7c-7.3,0-14.4,0.7-21.3,2.1c-48.5,9.9-85.1,52.9-85.1,104.2v85.1c0,7.4,3.8,14.2,10.1,18.1
				c6.1,3.8,14,4.3,20.7,0.9l85.1-42.5L170.9,256.7z M265.5,2.2c-6-3-13-3-19,0c-59.8,29.9-96.9,91.3-96.9,158.1v11.2l50.4,42.5
				h106.8l55.5-42.5v-11.2C362.4,93.6,325.3,32.1,265.5,2.2z M340.5,485.6l-14.7-58.7l-6-23.9V256.7H192.2V403l-6,23.9l-14.7,58.7
				c-1.6,6.4-0.2,13.1,3.9,18.2c4,5.2,10.2,8.2,16.8,8.2h127.6c6.5,0,12.7-3,16.8-8.2C340.6,498.7,342,491.9,340.5,485.6z
				 M362.4,258.9c-6.9-1.4-14-2.1-21.3-2.1l-9.5,168l85.1,42.5c6.7,3.3,14.5,2.9,20.7-0.9c6.3-3.9,10.1-10.7,10.1-18.1v-85.1
				C447.5,311.7,410.9,268.7,362.4,258.9z"/>
		</g>
	</g>
	<g>
		<g>
			
				<linearGradient id="SVGID_2_" gradientUnits="userSpaceOnUse" x1="256" y1="87.0967" x2="256" y2="342.3869" gradientTransform="matrix(1 0 0 -1 0 514)">
				<stop  offset="0" style="stop-color:#FFC2CC"/>
				<stop  offset="1" style="stop-color:#FFF2F4"/>
			</linearGradient>
			<path class="st1" d="M149.6,171.6v234c0,11.8,9.5,21.3,21.3,21.3h170.2c11.8,0,21.3-9.5,21.3-21.3v-234H149.6z M256,299.3
				c-11.8,0-21.3-9.5-21.3-21.3c0-11.8,9.5-21.3,21.3-21.3c11.7,0,21.3,9.5,21.3,21.3C277.3,289.7,267.7,299.3,256,299.3z"/>
		</g>
	</g>
</g>
</svg>
